<svg xmlns="http://www.w3.org/2000/svg" width="900" height="540" viewBox="0 0 900 540"><rect width="900" height="540" fill="#edf0eb"/><path d="M80 100h420v16H80zm0 40h260v10H80zm0 140h740v2H80zm0 40h740v2H80zm0 40h520v2H80z" fill="#c6cfc8"/><path fill="#ed492b" d="M620 100h92c25 0 43 17 43 40s-18 40-43 40h-43v73h-49z"/><path fill="#edf0eb" d="M649 128h61c9 0 14 5 14 12s-5 12-14 12h-36v-12h-25z"/><circle cx="738" cy="231" r="16" fill="#152b32"/><text x="80" y="450" font-family="Arial,sans-serif" font-weight="bold" font-size="25" letter-spacing="4" fill="#52645b">PONTO &amp; PAUTA · SEM FOTO</text></svg>
